# xmcd
#
# Track frame offsets:
#	150
#	14604
#	31009
#	38848
#	53527
#	63647
#	76535
#	92623
#	104246
#	115357
#	129938
#	140237
#	153407
#	170914
#
# Disc length: 2581 seconds
#
# Revision: 2
# Processed by: cddbd v1.5.2PL0 Copyright (c) Steve Scherf et al.
# Submitted via: EasyCDDAExtractor 8.2.3.1
#
DISCID=ba0a130e
DTITLE=Doc and Merle Watson - Home Sweet Home
DYEAR=1998
DGENRE=Country
TTITLE0=John Henry
TTITLE1=Girl In The Velvet Band
TTITLE2=Lonesome Banjo
TTITLE3=Listening To The Rain
TTITLE4=Russian Grass
TTITLE5=Worried Blues
TTITLE6=Train That Carried My Girl From Town
TTITLE7=Old Joe Clark
TTITLE8=Down The Road
TTITLE9=Big Spike Hammer
TTITLE10=Reuben's Train
TTITLE11=Little Maggie
TTITLE12=I Wonder How The Old Folks Are At Home
TTITLE13=Home Sweet Home
EXTD=YEAR: 1998
EXTT0=
EXTT1=
EXTT2=
EXTT3=
EXTT4=
EXTT5=
EXTT6=
EXTT7=
EXTT8=
EXTT9=
EXTT10=
EXTT11=
EXTT12=
EXTT13=
PLAYORDER=
